<?xml version="1.0" standalone="no"?>
<!DOCTYPE svg PUBLIC "-//W3C//DTD SVG 20010904//EN"
 "http://www.w3.org/TR/2001/REC-SVG-20010904/DTD/svg10.dtd">
<svg version="1.0" xmlns="http://www.w3.org/2000/svg"
 width="1254.000000pt" height="1254.000000pt" viewBox="0 0 1254.000000 1254.000000"
 preserveAspectRatio="xMidYMid meet">

<g transform="translate(0.000000,1254.000000) scale(0.100000,-0.100000)"
fill="#000000" stroke="none">
<path d="M0 6270 l0 -6270 6270 0 6270 0 0 6270 0 6270 -6270 0 -6270 0 0
-6270z m6069 1575 c93 -101 511 -585 511 -593 0 -5 -8 -9 -17 -9 -10 1 -649 0
-1420 -1 l-1403 -2 0 -470 0 -470 1480 0 c947 0 1480 -3 1480 -10 0 -9 -229
-262 -478 -527 l-124 -133 -1179 0 -1179 0 0 -788 c0 -600 -3 -791 -12 -800
-9 -9 -96 -12 -330 -12 -303 0 -318 1 -328 19 -7 13 -10 631 -10 1925 l0 1905
22 16 c20 14 170 15 1476 13 l1454 -3 57 -60z m3601 56 c0 -17 -515 -584
-1060 -1166 -199 -213 -418 -449 -713 -768 l-119 -128 649 -653 c356 -359 758
-766 892 -905 l243 -251 -475 0 c-261 0 -482 3 -491 6 -8 3 -248 247 -533 542
-285 296 -568 589 -630 653 l-112 115 -434 -470 c-238 -259 -504 -548 -591
-643 -86 -95 -167 -179 -179 -188 -18 -13 -81 -15 -445 -15 l-423 0 74 83 c41
45 160 177 264 292 103 116 296 330 428 476 132 146 373 414 535 595 162 181
363 403 445 494 447 491 709 785 1358 1522 198 224 366 409 375 411 33 9 942
7 942 -2z"/>
</g>
</svg>
